<svg width="1352" height="901" viewBox="0 0 1352 901" fill="none" xmlns="http://www.w3.org/2000/svg">
<circle cx="675.5" cy="268.5" r="228.5" fill="#F9D99B"/>
<path d="M568.61 397.402C563.038 396.989 558.443 396.49 553.956 396.002C547.787 416.269 551.44 421.253 570.954 418.123C583.459 416.117 595.58 419.146 607.925 419.069C665.531 418.714 723.141 418.964 780.75 418.962C883.549 418.958 986.349 418.95 1089.15 418.856C1094.58 418.851 1100.21 419.999 1105.42 417.449C1107.54 413.04 1104.64 409.843 1102.8 406.736C1089.34 383.986 1075.49 361.461 1062.17 338.623C1057.36 330.359 1050.07 327.634 1041.41 325.597C1009.55 318.105 979.305 306.824 954.248 284.809C928.584 262.26 914.34 234.067 914.146 199.601C914.101 191.587 911.166 186.979 904.096 183.761C881.68 173.559 858.222 167.234 833.645 167.144C736.781 166.79 639.898 165.889 543.057 167.417C496.646 168.15 467.65 197.535 448.56 237.254C438.492 258.201 433.385 280.714 433.571 304.108C433.618 309.997 434.605 316.053 436.236 321.723C441.255 339.178 456.905 342.985 469.315 329.628C485.008 312.737 494.161 292.142 501.722 270.641C509.839 247.561 518.749 224.957 541.718 211.718C550.513 206.648 559.586 204.06 569.677 204.078C633.686 204.189 697.704 203.61 761.702 204.459C795.943 204.913 825.167 219.868 850.831 241.717C872.476 260.144 889.468 282.577 904.241 306.721C907.586 312.188 911.189 317.984 906.95 324.545C903.165 330.404 896.974 330.657 890.911 330.11C853.854 326.767 816.715 328.681 779.617 328.465C767.349 328.394 759.525 325.304 760.366 311.327C760.759 304.794 757.135 302.182 750.92 302.181C730.437 302.177 709.955 302.113 689.473 302.014C682.96 301.983 678.509 304.292 678.851 311.559C679.515 325.675 671.35 328.319 659.282 328.431C623.036 328.767 586.744 326.716 550.541 330.203C545.01 330.736 539.579 330.978 535.598 335.444C534.505 334.018 533.593 333.382 533.558 332.702C532.344 309.138 532.353 309.357 556.101 309.609C585.97 309.926 615.846 309.585 645.711 310.064C655.971 310.229 660.867 307.118 659.794 296.097C658.887 286.769 664.592 283.327 673.326 283.351C704.05 283.437 734.776 283.528 765.499 283.308C776.317 283.231 780.045 289 779.382 298.619C778.78 307.338 781.718 310.479 791.04 310.194C815.341 309.452 839.68 309.98 864.002 309.792C868.915 309.754 874.247 311.148 879.104 306.996C878.746 305.522 878.764 303.693 877.928 302.431C847.047 255.811 808.767 221.748 748.228 222.609C692.337 223.403 636.419 223.362 580.529 222.565C553.723 222.182 537 234.634 527.066 258.11C518.114 279.265 512.56 301.917 499.51 321.25C494.753 328.297 490.026 335.606 484.025 341.517C472.679 352.696 459.578 360.801 442.667 354.446C425.171 347.871 417.046 333.83 414.951 316.182C412.764 297.773 414.865 279.535 419.885 261.711C421.694 255.287 421.761 250.654 414.523 247.129C396.18 238.198 384.232 222.718 374.068 205.595C362.099 185.431 353.088 163.598 339.377 144.419C320.203 117.598 293.705 109.305 262.999 120.586C242.166 128.24 234.204 143.81 240.578 165.204C245.929 183.16 256.958 197.908 268.454 212.243C287.134 235.535 306.334 258.413 324.815 281.86C335.981 296.026 344.819 311.622 347.978 329.771C350.871 346.386 341.066 366.292 326.423 374.397C321.261 377.255 316.473 377.586 312.697 372.778C308.643 367.616 310.851 363.072 315.585 359.669C334.477 346.092 331.235 332.525 323.676 315.744C316.274 299.309 305.067 285.234 293.626 271.373C272.739 246.068 249.885 222.254 233.473 193.511C230.104 187.61 227.069 181.442 224.599 175.116C211.734 142.169 226.544 111.974 260.497 101.485C297.317 90.1094 331.23 101.555 353.969 133.369C366.409 150.775 375.349 170.238 385.781 188.825C394.165 203.766 403.419 217.956 417.977 227.991C425.784 233.374 430.206 232.669 434.744 223.725C455.052 183.693 486.496 156.541 531.405 149.681C555.215 146.044 579.905 147.789 604.199 147.759C673.328 147.676 742.504 149.545 811.574 147.571C873.758 145.793 925.649 168.054 972.069 206.683C1032.4 256.888 1075.86 320.424 1114.1 387.973C1119.77 397.987 1125.16 408.183 1130.2 418.526C1135.77 429.945 1132.56 434.932 1119.69 435.736C1117.56 435.869 1115.42 435.759 1113.29 435.758C1030.93 435.713 948.57 435.639 866.211 435.629C788.189 435.62 710.167 435.667 632.144 435.719C622.34 435.725 612.132 438.865 603.077 437.978C582.358 435.948 561.589 436.843 540.978 434.734C534.465 434.068 532.432 428.351 532.394 422.261C532.324 411.171 532.998 400.025 532.096 389.005C531.159 377.547 546.193 376.481 544.867 364.458C558.205 378.196 573.941 375.649 589.028 375.658C676.935 375.707 764.842 375.68 852.748 375.687C898.746 375.691 944.744 375.708 990.742 375.73C993.728 375.732 996.738 375.605 999.695 375.923C1006.09 376.611 1012.08 378.788 1011.6 386.423C1011.14 393.735 1004.74 394.307 999.071 394.326C967.066 394.436 935.061 394.396 903.057 394.406C801.194 394.439 699.331 394.48 597.468 394.493C588.07 394.494 578.699 394.579 568.61 397.402ZM942.81 241.437C962.66 276.318 994.766 292.904 1033.39 303.771C1020.7 275.279 959.892 214.644 934.357 204.248C932.698 217.24 937.431 228.463 942.81 241.437Z" fill="black"/>
<path d="M1088.11 641.783C1077.17 618.808 1078.34 597.61 1094.68 578.943C1109.71 561.779 1129.24 555.579 1151.36 562.043C1174.34 568.763 1187.76 584.809 1191.7 608.469C1194.04 622.465 1189.84 627.559 1175.77 627.697C1157.86 627.871 1139.95 627.657 1122.04 627.78C1117.46 627.812 1112.65 626.795 1108.42 629.559C1109.52 643.675 1126.78 654.478 1142.29 650.678C1145.99 649.771 1149.53 648.173 1153.13 646.863C1159.51 644.545 1165.29 645.024 1168.07 651.992C1170.63 658.417 1166.53 662.352 1161.35 665.405C1143.52 675.928 1116.65 672.609 1100.7 657.41C1096.13 653.049 1092.6 647.59 1088.11 641.783ZM1166.86 597.988C1151.78 574.033 1120.95 572.712 1107.39 595.582C1104.32 600.745 1100.61 607.681 1111.34 608.025C1127.42 608.542 1143.55 608.143 1159.64 607.62C1163.92 607.481 1169.9 607.168 1166.86 597.988Z" fill="black"/>
<path d="M1054.66 570.457C1060.77 574.702 1065.31 579.133 1068.4 584.915C1070.57 588.985 1071.43 593.037 1067.56 596.562C1063.5 600.257 1058.95 600.159 1054.72 597.042C1051.65 594.786 1049.17 591.745 1046.17 589.374C1030.2 576.735 1010.84 580.612 1002.25 599.074C1015.88 605.261 1030.73 607.037 1044.92 610.762C1057.11 613.964 1068.41 617.686 1070.58 631.936C1072.75 646.168 1063.91 655.154 1053.37 662.448C1032.11 677.152 1002.7 673.398 986.034 654.081C981.767 649.134 977.113 643.414 983.114 637.295C989.435 630.849 995.263 634.815 1000.8 639.86C1017.15 654.742 1035.1 654.961 1046.66 640.627C1047.65 639.399 1047.95 637.608 1048.54 636.149C1044.36 630.076 1037.82 630.937 1032.25 629.476C1020.71 626.45 1009 623.985 997.627 620.433C979.602 614.804 974.365 596.854 985.907 581.836C1001.77 561.202 1028.03 556.605 1054.66 570.457Z" fill="black"/>
<path d="M936.729 666.208C903.837 679.522 872.07 665.293 860.635 632.918C849.992 602.788 866.92 571.106 898.656 561.756C929.267 552.737 961.205 572.199 968.389 604.603C972.393 622.664 970.248 641.048 970.093 659.3C970.052 664.264 967.693 668.425 962.721 670.259C958.288 671.895 953.675 671.16 951.369 667.07C947.062 659.431 942.448 663.297 936.729 666.208ZM918.744 579.826C901.259 578.84 888.846 585.559 882.239 599.586C876.008 612.813 878.027 628.8 887.215 638.979C896.698 649.485 912.679 653.566 925.598 648.779C938.59 643.966 948.963 629.071 948.983 615.199C949.008 598.786 939.678 587.337 918.744 579.826Z" fill="black"/>
<path d="M826.25 598.88C823.364 606.767 817.553 607.352 811.3 607.307C800.214 607.228 789.124 607.438 778.04 607.257C770.998 607.142 767.814 610.387 768.049 617.283C768.064 617.708 768.014 618.135 768.014 618.561C768.017 655.77 764.873 649.755 797.6 650.206C809.538 650.371 821.48 650.282 833.419 650.411C840.398 650.486 846.912 652.438 847.051 660.584C847.205 669.612 840.329 671.28 832.815 671.271C810.214 671.244 787.613 671.324 765.012 671.266C749.475 671.227 744.679 666.876 745.53 651.62C747.382 618.393 746.412 585.155 746.749 551.924C746.818 545.105 746.662 538.282 746.843 531.466C747.062 523.215 751.382 518.981 759.737 518.983C784.896 518.989 810.055 518.982 835.214 518.965C841.543 518.961 846.615 521.331 846.695 528.161C846.785 535.761 841.086 538.083 834.469 538.126C816.56 538.242 798.639 538.553 780.744 538.051C771.39 537.789 767.436 541.1 767.937 550.57C768.386 559.069 768.264 567.631 767.825 576.136C767.361 585.131 771.37 588.281 780.047 587.826C790.68 587.269 801.362 587.693 812.007 587.272C819.902 586.96 825.456 589.143 826.25 598.88Z" fill="black"/>
<path d="M671.927 587.328C664.824 594.044 663.399 601.788 663.453 610.168C663.553 625.508 663.559 640.851 663.379 656.19C663.295 663.42 661.805 670.785 652.706 670.597C643.746 670.413 642.377 663.136 642.347 655.844C642.281 640.077 642.59 624.303 642.231 608.544C641.847 591.705 632.292 581.617 617.757 581.889C604.119 582.145 594.76 592.609 594.463 608.626C594.17 624.389 594.408 640.16 594.344 655.927C594.315 663.28 592.735 670.532 583.816 670.484C574.904 670.435 573.33 662.982 573.308 655.781C573.227 629.361 573.09 602.935 573.545 576.521C573.759 564.113 579.497 560.515 590.793 565.492C595.402 567.523 598.809 566.477 602.882 565.061C617.523 559.972 631.719 560.914 643.921 570.902C649.92 575.813 653.836 576.241 660.365 571.604C674.854 561.312 690.942 558.501 707.366 567.091C724.473 576.039 732.231 590.997 732.487 609.958C732.695 625.296 732.583 640.64 732.514 655.981C732.481 663.341 730.799 670.532 721.894 670.485C712.965 670.438 711.454 663.186 711.43 655.847C711.378 640.08 711.628 624.308 711.353 608.545C710.953 585.569 693.088 575.583 671.927 587.328Z" fill="black"/>
<path d="M554.089 669.476C544.64 673.83 541.387 666.067 536.329 661.782C525.683 666.255 515.701 671.633 503.571 671.419C473.438 670.887 448.498 646.862 447.548 616.379C446.682 588.59 470.414 562.052 498.003 559.96C529.158 557.596 555.106 578.69 558.919 609.116C560.781 623.979 560.514 638.854 560.126 653.739C559.983 659.207 559.82 664.944 554.089 669.476ZM499.042 579.494C495.799 580.501 492.301 581.03 489.357 582.597C475.835 589.795 468.491 600.865 468.858 616.562C469.21 631.591 477.249 643.032 491.677 648.753C505.576 654.265 517.668 650.772 527.842 640.616C538.346 630.131 541.901 617.478 536.666 603.226C530.629 586.79 517.689 580.183 499.042 579.494Z" fill="black"/>
<path d="M409.357 627.75C389.901 627.757 371.697 627.757 353.146 627.757C356.627 643.925 372.45 653.924 387.057 650.736C388.721 650.373 390.344 649.811 391.967 649.285C399.826 646.736 410.11 640.381 413.619 652.312C417.299 664.825 405.22 666.932 396.196 669.216C364.478 677.245 334.038 657.971 327.797 626.097C321.903 595.996 342.331 565.909 372.402 560.402C403.467 554.713 433.634 577.069 437.786 608.859C439.458 621.654 434.776 627.328 422.131 627.712C418.294 627.829 414.45 627.739 409.357 627.75ZM380.531 579.246C361.117 582.81 352.251 590.958 351.072 608.012C370.073 608.012 389.006 608.278 407.924 607.874C414.964 607.723 414.797 602.693 412.261 597.852C406.023 585.942 395.932 579.925 380.531 579.246Z" fill="black"/>
<path d="M298.056 562.098C301.66 562.376 304.217 562.472 306.773 562.596C312.718 562.886 316.847 565.94 317.042 571.839C317.242 577.898 312.725 581.852 307.186 581.315C292.528 579.893 291.559 588.383 292.092 599.417C292.627 610.477 292.326 621.583 292.231 632.667C292.143 642.921 295.213 650.111 307.128 650.626C313.956 650.921 320.47 653.37 319.93 661.699C319.398 669.912 312.919 671.146 305.908 671.286C288.975 671.624 276.543 662.207 272.912 645.381C269.454 629.361 271.745 613.077 271.346 596.917C271.15 589.002 271.942 581.231 260.182 581.074C255.678 581.014 252.756 576.954 252.903 572.021C253.028 567.796 255.415 563.714 259.371 563.551C272.294 563.021 271.5 554.278 271.329 545.509C271.262 542.104 271.119 538.644 271.611 535.298C272.49 529.324 275.265 524.4 282.127 524.664C288.805 524.921 291.739 529.579 292.068 535.816C292.427 542.622 292.375 549.448 292.64 556.26C292.75 559.058 294.303 561.001 298.056 562.098Z" fill="black"/>
<path d="M172.635 640.061C181.087 645.301 188.316 650.527 197.994 650.369C210.799 650.161 220.66 643.254 223.87 631.605C227.117 619.824 221.581 607.474 209.726 601.889C204.013 599.198 197.579 598.078 191.567 595.971C175.624 590.384 164.163 574.687 163.741 558.118C163.369 543.512 173.372 528.892 188.29 522.24C203.107 515.634 220.591 518.637 232.109 530.046C235.976 533.876 241.132 538.178 236.88 544.219C232.323 550.694 226.496 547.958 221.14 544.524C212.527 539.002 203.63 535.197 193.79 541.507C186.593 546.123 184.007 553.082 184.93 561.355C186.348 574.051 196.124 577.553 206.373 579.873C225.057 584.104 237.425 595.21 243.498 613.179C250.357 633.475 239.941 656.459 219.617 666.663C200.153 676.434 173.811 670.445 162.014 653.584C160.023 650.739 157.898 647.78 159.652 644.214C162.155 639.122 166.689 638.614 172.635 640.061Z" fill="black"/>
<path d="M1141.11 161.562C1145.59 163.747 1150.49 163.467 1153.24 170.113C1126.12 174.154 1135.33 199.493 1127.01 216.66C1119.78 208.871 1120.61 199.936 1119.63 192.15C1118.37 182.126 1115.07 175.29 1104.57 173.187C1102.57 172.787 1100.69 171.428 1099.86 166.858C1124.24 163.507 1117.37 139.847 1125.41 122.842C1131.05 130.925 1130.76 138.271 1132.32 145.055C1133.7 151.017 1132.77 158.206 1141.11 161.562Z" fill="black"/>
<path d="M1089.95 152.755C1087.84 167.498 1087.37 181.45 1082.16 195.841C1075.22 190.18 1076.76 183.144 1075.1 177.432C1073.57 172.169 1072.93 166.569 1072.53 161.071C1071.13 141.726 1067.03 124.695 1043.14 122.342C1040.95 122.127 1038.16 120.775 1037.69 116.659C1041.17 111.04 1048.06 110.685 1053.86 109.139C1063.77 106.496 1068.23 100.937 1069.93 90.5755C1072.31 76.0933 1073.27 61.1505 1078.31 47.3032C1083.89 47.8608 1084.34 51.586 1084.98 54.832C1086.22 61.0946 1087.75 67.3898 1088.08 73.728C1089.15 94.0904 1094.93 110.401 1118.71 112.927C1119.85 113.047 1120.96 114.117 1121.91 114.94C1122.5 115.448 1122.76 116.327 1124.17 118.758C1110.07 126.599 1087.53 127.145 1089.95 152.755Z" fill="black"/>
<path d="M149.6 779.8C147.617 779.8 145.817 779.55 144.2 779.05C142.583 778.55 141.158 777.933 139.925 777.2C138.708 776.45 137.683 775.7 136.85 774.95C136.017 774.2 135.383 773.583 134.95 773.1L138.4 767.8C138.867 768.283 139.45 768.858 140.15 769.525C140.867 770.192 141.7 770.85 142.65 771.5C143.6 772.133 144.667 772.667 145.85 773.1C147.033 773.517 148.342 773.725 149.775 773.725C151.125 773.725 152.333 773.5 153.4 773.05C154.467 772.6 155.317 771.933 155.95 771.05C156.583 770.15 156.9 769.042 156.9 767.725C156.9 766.575 156.658 765.592 156.175 764.775C155.708 763.958 155.033 763.25 154.15 762.65C153.267 762.033 152.217 761.45 151 760.9C149.783 760.333 148.425 759.75 146.925 759.15C145.858 758.7 144.8 758.175 143.75 757.575C142.717 756.975 141.775 756.258 140.925 755.425C140.092 754.592 139.425 753.633 138.925 752.55C138.425 751.45 138.175 750.183 138.175 748.75C138.175 747.2 138.475 745.725 139.075 744.325C139.692 742.908 140.558 741.65 141.675 740.55C142.792 739.45 144.117 738.583 145.65 737.95C147.2 737.317 148.925 737 150.825 737C152.375 737 153.883 737.225 155.35 737.675C156.817 738.125 158.15 738.708 159.35 739.425C160.567 740.142 161.558 740.908 162.325 741.725L159.475 746.7C158.842 746.05 158.083 745.442 157.2 744.875C156.333 744.292 155.367 743.825 154.3 743.475C153.233 743.125 152.117 742.95 150.95 742.95C149.583 742.95 148.425 743.217 147.475 743.75C146.525 744.283 145.792 744.983 145.275 745.85C144.775 746.7 144.525 747.625 144.525 748.625C144.525 749.492 144.7 750.233 145.05 750.85C145.417 751.45 145.917 751.967 146.55 752.4C147.183 752.833 147.908 753.233 148.725 753.6C149.558 753.95 150.433 754.3 151.35 754.65C153.167 755.383 154.842 756.133 156.375 756.9C157.925 757.65 159.267 758.508 160.4 759.475C161.533 760.425 162.408 761.558 163.025 762.875C163.658 764.175 163.975 765.742 163.975 767.575C163.975 770.142 163.358 772.342 162.125 774.175C160.908 776.008 159.217 777.408 157.05 778.375C154.9 779.325 152.417 779.8 149.6 779.8ZM171.956 792V753.4H178.181V757.3C179.214 755.817 180.556 754.667 182.206 753.85C183.856 753.017 185.656 752.6 187.606 752.6C190.073 752.6 192.264 753.192 194.181 754.375C196.114 755.558 197.639 757.175 198.756 759.225C199.873 761.258 200.431 763.583 200.431 766.2C200.431 768.783 199.873 771.1 198.756 773.15C197.656 775.2 196.148 776.825 194.231 778.025C192.331 779.208 190.173 779.8 187.756 779.8C185.823 779.8 184.023 779.375 182.356 778.525C180.689 777.658 179.298 776.45 178.181 774.9V792H171.956ZM185.981 774.475C187.514 774.475 188.873 774.125 190.056 773.425C191.256 772.708 192.198 771.733 192.881 770.5C193.564 769.25 193.906 767.825 193.906 766.225C193.906 764.625 193.556 763.2 192.856 761.95C192.173 760.683 191.239 759.7 190.056 759C188.873 758.283 187.514 757.925 185.981 757.925C184.448 757.925 183.081 758.283 181.881 759C180.681 759.7 179.731 760.675 179.031 761.925C178.348 763.175 178.006 764.6 178.006 766.2C178.006 767.8 178.348 769.225 179.031 770.475C179.714 771.725 180.656 772.708 181.856 773.425C183.073 774.125 184.448 774.475 185.981 774.475ZM220.338 779.8C217.604 779.8 215.154 779.208 212.988 778.025C210.838 776.842 209.129 775.225 207.863 773.175C206.613 771.125 205.988 768.817 205.988 766.25C205.988 764.35 206.346 762.575 207.063 760.925C207.779 759.275 208.771 757.825 210.038 756.575C211.304 755.325 212.779 754.35 214.463 753.65C216.146 752.95 217.963 752.6 219.913 752.6C222.579 752.6 224.913 753.15 226.913 754.25C228.929 755.35 230.496 756.883 231.613 758.85C232.746 760.817 233.313 763.108 233.313 765.725C233.313 765.942 233.304 766.125 233.288 766.275C233.271 766.408 233.238 766.642 233.188 766.975H212.338C212.338 768.525 212.688 769.892 213.388 771.075C214.088 772.242 215.063 773.158 216.313 773.825C217.579 774.475 219.029 774.8 220.663 774.8C222.213 774.8 223.588 774.492 224.788 773.875C226.004 773.242 227.104 772.283 228.088 771L232.613 773.325C231.396 775.358 229.704 776.95 227.538 778.1C225.388 779.233 222.988 779.8 220.338 779.8ZM212.613 763.075H227.138C226.921 761.908 226.479 760.9 225.813 760.05C225.146 759.2 224.304 758.542 223.288 758.075C222.271 757.592 221.138 757.35 219.888 757.35C218.571 757.35 217.396 757.583 216.363 758.05C215.329 758.517 214.488 759.175 213.838 760.025C213.188 760.875 212.779 761.892 212.613 763.075ZM253.052 779.8C250.319 779.8 247.869 779.208 245.702 778.025C243.552 776.842 241.844 775.225 240.577 773.175C239.327 771.125 238.702 768.817 238.702 766.25C238.702 764.35 239.061 762.575 239.777 760.925C240.494 759.275 241.486 757.825 242.752 756.575C244.019 755.325 245.494 754.35 247.177 753.65C248.861 752.95 250.677 752.6 252.627 752.6C255.294 752.6 257.627 753.15 259.627 754.25C261.644 755.35 263.211 756.883 264.327 758.85C265.461 760.817 266.027 763.108 266.027 765.725C266.027 765.942 266.019 766.125 266.002 766.275C265.986 766.408 265.952 766.642 265.902 766.975H245.052C245.052 768.525 245.402 769.892 246.102 771.075C246.802 772.242 247.777 773.158 249.027 773.825C250.294 774.475 251.744 774.8 253.377 774.8C254.927 774.8 256.302 774.492 257.502 773.875C258.719 773.242 259.819 772.283 260.802 771L265.327 773.325C264.111 775.358 262.419 776.95 260.252 778.1C258.102 779.233 255.702 779.8 253.052 779.8ZM245.327 763.075H259.852C259.636 761.908 259.194 760.9 258.527 760.05C257.861 759.2 257.019 758.542 256.002 758.075C254.986 757.592 253.852 757.35 252.602 757.35C251.286 757.35 250.111 757.583 249.077 758.05C248.044 758.517 247.202 759.175 246.552 760.025C245.902 760.875 245.494 761.892 245.327 763.075ZM284.292 779.8C281.959 779.8 279.826 779.217 277.892 778.05C275.976 776.883 274.451 775.275 273.317 773.225C272.201 771.175 271.642 768.833 271.642 766.2C271.642 763.583 272.192 761.258 273.292 759.225C274.409 757.175 275.926 755.558 277.842 754.375C279.776 753.192 281.976 752.6 284.442 752.6C286.409 752.6 288.217 753.017 289.867 753.85C291.517 754.683 292.851 755.842 293.867 757.325V735.975H300.092V779H293.867V774.9C292.751 776.433 291.359 777.633 289.692 778.5C288.042 779.367 286.242 779.8 284.292 779.8ZM286.092 774.475C287.642 774.475 289.009 774.125 290.192 773.425C291.392 772.708 292.334 771.733 293.017 770.5C293.701 769.25 294.042 767.825 294.042 766.225C294.042 764.625 293.701 763.2 293.017 761.95C292.334 760.683 291.392 759.7 290.192 759C289.009 758.283 287.642 757.925 286.092 757.925C284.576 757.925 283.217 758.283 282.017 759C280.817 759.7 279.876 760.683 279.192 761.95C278.509 763.2 278.167 764.633 278.167 766.25C278.167 767.833 278.501 769.25 279.167 770.5C279.851 771.733 280.792 772.708 281.992 773.425C283.192 774.125 284.559 774.475 286.092 774.475ZM309.531 792L317.106 776.725L304.931 753.4H312.031L320.706 770.65L328.381 753.4H335.481L316.631 792H309.531ZM364.786 779.8C362.802 779.8 361.002 779.55 359.386 779.05C357.769 778.55 356.344 777.933 355.111 777.2C353.894 776.45 352.869 775.7 352.036 774.95C351.202 774.2 350.569 773.583 350.136 773.1L353.586 767.8C354.052 768.283 354.636 768.858 355.336 769.525C356.052 770.192 356.886 770.85 357.836 771.5C358.786 772.133 359.852 772.667 361.036 773.1C362.219 773.517 363.527 773.725 364.961 773.725C366.311 773.725 367.519 773.5 368.586 773.05C369.652 772.6 370.502 771.933 371.136 771.05C371.769 770.15 372.086 769.042 372.086 767.725C372.086 766.575 371.844 765.592 371.361 764.775C370.894 763.958 370.219 763.25 369.336 762.65C368.452 762.033 367.402 761.45 366.186 760.9C364.969 760.333 363.611 759.75 362.111 759.15C361.044 758.7 359.986 758.175 358.936 757.575C357.902 756.975 356.961 756.258 356.111 755.425C355.277 754.592 354.611 753.633 354.111 752.55C353.611 751.45 353.361 750.183 353.361 748.75C353.361 747.2 353.661 745.725 354.261 744.325C354.877 742.908 355.744 741.65 356.861 740.55C357.977 739.45 359.302 738.583 360.836 737.95C362.386 737.317 364.111 737 366.011 737C367.561 737 369.069 737.225 370.536 737.675C372.002 738.125 373.336 738.708 374.536 739.425C375.752 740.142 376.744 740.908 377.511 741.725L374.661 746.7C374.027 746.05 373.269 745.442 372.386 744.875C371.519 744.292 370.552 743.825 369.486 743.475C368.419 743.125 367.302 742.95 366.136 742.95C364.769 742.95 363.611 743.217 362.661 743.75C361.711 744.283 360.977 744.983 360.461 745.85C359.961 746.7 359.711 747.625 359.711 748.625C359.711 749.492 359.886 750.233 360.236 750.85C360.602 751.45 361.102 751.967 361.736 752.4C362.369 752.833 363.094 753.233 363.911 753.6C364.744 753.95 365.619 754.3 366.536 754.65C368.352 755.383 370.027 756.133 371.561 756.9C373.111 757.65 374.452 758.508 375.586 759.475C376.719 760.425 377.594 761.558 378.211 762.875C378.844 764.175 379.161 765.742 379.161 767.575C379.161 770.142 378.544 772.342 377.311 774.175C376.094 776.008 374.402 777.408 372.236 778.375C370.086 779.325 367.602 779.8 364.786 779.8ZM399.716 779.8C396.95 779.8 394.45 779.225 392.216 778.075C390 776.925 388.241 775.325 386.941 773.275C385.641 771.225 384.991 768.867 384.991 766.2C384.991 763.517 385.641 761.158 386.941 759.125C388.241 757.075 390 755.475 392.216 754.325C394.433 753.175 396.933 752.6 399.716 752.6C402.483 752.6 404.975 753.175 407.191 754.325C409.425 755.475 411.183 757.075 412.466 759.125C413.766 761.158 414.416 763.517 414.416 766.2C414.416 768.867 413.766 771.225 412.466 773.275C411.183 775.325 409.425 776.925 407.191 778.075C404.975 779.225 402.483 779.8 399.716 779.8ZM399.716 774.45C401.283 774.45 402.683 774.1 403.916 773.4C405.166 772.683 406.15 771.708 406.866 770.475C407.583 769.225 407.941 767.8 407.941 766.2C407.941 764.583 407.583 763.158 406.866 761.925C406.15 760.675 405.166 759.7 403.916 759C402.683 758.3 401.283 757.95 399.716 757.95C398.166 757.95 396.766 758.3 395.516 759C394.266 759.7 393.283 760.675 392.566 761.925C391.85 763.158 391.491 764.583 391.491 766.2C391.491 767.8 391.85 769.225 392.566 770.475C393.283 771.708 394.266 772.683 395.516 773.4C396.766 774.1 398.166 774.45 399.716 774.45ZM421.858 779V736H428.083V779H421.858ZM449.502 779.8C445.102 779.8 441.944 778.9 440.027 777.1C438.111 775.283 437.152 772.292 437.152 768.125V753.4H443.377V766.725C443.377 769.608 443.836 771.658 444.752 772.875C445.686 774.092 447.269 774.7 449.502 774.7C451.736 774.7 453.311 774.092 454.227 772.875C455.161 771.658 455.627 769.608 455.627 766.725V753.4H461.852V768.125C461.852 772.292 460.894 775.283 458.977 777.1C457.061 778.9 453.902 779.8 449.502 779.8ZM478.636 779.8C476.32 779.8 474.511 779.05 473.211 777.55C471.928 776.05 471.286 773.942 471.286 771.225V758.125H468.161V753.4H471.286V743.825H477.511V753.4H483.411V758.125H477.511V770.8C477.511 771.917 477.736 772.775 478.186 773.375C478.636 773.958 479.278 774.25 480.111 774.25C480.978 774.25 481.77 773.983 482.486 773.45L484.061 778.425C483.311 778.858 482.453 779.192 481.486 779.425C480.52 779.675 479.57 779.8 478.636 779.8ZM491.169 779V753.4H497.394V779H491.169ZM494.294 748.15C493.611 748.15 492.977 747.983 492.394 747.65C491.827 747.3 491.369 746.842 491.019 746.275C490.686 745.692 490.519 745.05 490.519 744.35C490.519 743.667 490.686 743.042 491.019 742.475C491.369 741.908 491.827 741.458 492.394 741.125C492.977 740.775 493.611 740.6 494.294 740.6C494.994 740.6 495.619 740.775 496.169 741.125C496.736 741.458 497.186 741.908 497.519 742.475C497.869 743.042 498.044 743.667 498.044 744.35C498.044 745.05 497.869 745.692 497.519 746.275C497.186 746.842 496.736 747.3 496.169 747.65C495.619 747.983 494.994 748.15 494.294 748.15ZM519.638 779.8C516.872 779.8 514.372 779.225 512.138 778.075C509.922 776.925 508.163 775.325 506.863 773.275C505.563 771.225 504.913 768.867 504.913 766.2C504.913 763.517 505.563 761.158 506.863 759.125C508.163 757.075 509.922 755.475 512.138 754.325C514.355 753.175 516.855 752.6 519.638 752.6C522.405 752.6 524.897 753.175 527.113 754.325C529.347 755.475 531.105 757.075 532.388 759.125C533.688 761.158 534.338 763.517 534.338 766.2C534.338 768.867 533.688 771.225 532.388 773.275C531.105 775.325 529.347 776.925 527.113 778.075C524.897 779.225 522.405 779.8 519.638 779.8ZM519.638 774.45C521.205 774.45 522.605 774.1 523.838 773.4C525.088 772.683 526.072 771.708 526.788 770.475C527.505 769.225 527.863 767.8 527.863 766.2C527.863 764.583 527.505 763.158 526.788 761.925C526.072 760.675 525.088 759.7 523.838 759C522.605 758.3 521.205 757.95 519.638 757.95C518.088 757.95 516.688 758.3 515.438 759C514.188 759.7 513.205 760.675 512.488 761.925C511.772 763.158 511.413 764.583 511.413 766.2C511.413 767.8 511.772 769.225 512.488 770.475C513.205 771.708 514.188 772.683 515.438 773.4C516.688 774.1 518.088 774.45 519.638 774.45ZM541.78 779V753.4H548.005V756.475C548.888 755.342 550.063 754.417 551.53 753.7C553.013 752.967 554.705 752.6 556.605 752.6C558.572 752.6 560.288 753.025 561.755 753.875C563.238 754.708 564.388 755.892 565.205 757.425C566.022 758.958 566.43 760.775 566.43 762.875V779H560.205V764.175C560.205 762.042 559.672 760.4 558.605 759.25C557.555 758.083 556.097 757.5 554.23 757.5C552.947 757.5 551.838 757.767 550.905 758.3C549.972 758.817 549.255 759.517 548.755 760.4C548.255 761.267 548.005 762.233 548.005 763.3V779H541.78ZM589.75 779V758.125H586.65V753.4H589.75V746.025C589.75 743.792 590.092 741.875 590.775 740.275C591.459 738.658 592.434 737.417 593.7 736.55C594.984 735.683 596.534 735.25 598.35 735.25C599.484 735.25 600.575 735.417 601.625 735.75C602.675 736.083 603.584 736.55 604.35 737.15L602.175 741.525C601.392 741.008 600.475 740.75 599.425 740.75C598.542 740.75 597.85 740.975 597.35 741.425C596.85 741.858 596.492 742.475 596.275 743.275C596.075 744.075 595.975 745.017 595.975 746.1V753.4H602.2V758.125H595.975V779H589.75ZM621.054 779.8C618.288 779.8 615.788 779.225 613.554 778.075C611.338 776.925 609.579 775.325 608.279 773.275C606.979 771.225 606.329 768.867 606.329 766.2C606.329 763.517 606.979 761.158 608.279 759.125C609.579 757.075 611.338 755.475 613.554 754.325C615.771 753.175 618.271 752.6 621.054 752.6C623.821 752.6 626.313 753.175 628.529 754.325C630.763 755.475 632.521 757.075 633.804 759.125C635.104 761.158 635.754 763.517 635.754 766.2C635.754 768.867 635.104 771.225 633.804 773.275C632.521 775.325 630.763 776.925 628.529 778.075C626.313 779.225 623.821 779.8 621.054 779.8ZM621.054 774.45C622.621 774.45 624.021 774.1 625.254 773.4C626.504 772.683 627.488 771.708 628.204 770.475C628.921 769.225 629.279 767.8 629.279 766.2C629.279 764.583 628.921 763.158 628.204 761.925C627.488 760.675 626.504 759.7 625.254 759C624.021 758.3 622.621 757.95 621.054 757.95C619.504 757.95 618.104 758.3 616.854 759C615.604 759.7 614.621 760.675 613.904 761.925C613.188 763.158 612.829 764.583 612.829 766.2C612.829 767.8 613.188 769.225 613.904 770.475C614.621 771.708 615.604 772.683 616.854 773.4C618.104 774.1 619.504 774.45 621.054 774.45ZM643.196 779V753.4H649.421V757.125C650.321 755.658 651.446 754.542 652.796 753.775C654.146 752.992 655.629 752.6 657.246 752.6C658.096 752.6 658.963 752.717 659.846 752.95C660.746 753.167 661.513 753.458 662.146 753.825L659.571 759.1C659.021 758.767 658.379 758.5 657.646 758.3C656.929 758.1 656.263 758 655.646 758C654.579 758 653.571 758.275 652.621 758.825C651.671 759.375 650.896 760.083 650.296 760.95C649.713 761.817 649.421 762.75 649.421 763.75V779H643.196ZM686.757 779V760.8L672.057 737.75H679.957L690.007 754.075L700.082 737.75H707.982L693.282 760.8V779H686.757ZM721.64 779.8C718.874 779.8 716.374 779.225 714.14 778.075C711.924 776.925 710.165 775.325 708.865 773.275C707.565 771.225 706.915 768.867 706.915 766.2C706.915 763.517 707.565 761.158 708.865 759.125C710.165 757.075 711.924 755.475 714.14 754.325C716.357 753.175 718.857 752.6 721.64 752.6C724.407 752.6 726.899 753.175 729.115 754.325C731.349 755.475 733.107 757.075 734.39 759.125C735.69 761.158 736.34 763.517 736.34 766.2C736.34 768.867 735.69 771.225 734.39 773.275C733.107 775.325 731.349 776.925 729.115 778.075C726.899 779.225 724.407 779.8 721.64 779.8ZM721.64 774.45C723.207 774.45 724.607 774.1 725.84 773.4C727.09 772.683 728.074 771.708 728.79 770.475C729.507 769.225 729.865 767.8 729.865 766.2C729.865 764.583 729.507 763.158 728.79 761.925C728.074 760.675 727.09 759.7 725.84 759C724.607 758.3 723.207 757.95 721.64 757.95C720.09 757.95 718.69 758.3 717.44 759C716.19 759.7 715.207 760.675 714.49 761.925C713.774 763.158 713.415 764.583 713.415 766.2C713.415 767.8 713.774 769.225 714.49 770.475C715.207 771.708 716.19 772.683 717.44 773.4C718.69 774.1 720.09 774.45 721.64 774.45ZM755.655 779.8C751.255 779.8 748.096 778.9 746.18 777.1C744.263 775.283 743.305 772.292 743.305 768.125V753.4H749.53V766.725C749.53 769.608 749.988 771.658 750.905 772.875C751.838 774.092 753.421 774.7 755.655 774.7C757.888 774.7 759.463 774.092 760.38 772.875C761.313 771.658 761.78 769.608 761.78 766.725V753.4H768.005V768.125C768.005 772.292 767.046 775.283 765.13 777.1C763.213 778.9 760.055 779.8 755.655 779.8ZM777.083 779V753.4H783.308V757.125C784.208 755.658 785.333 754.542 786.683 753.775C788.033 752.992 789.516 752.6 791.133 752.6C791.983 752.6 792.849 752.717 793.733 752.95C794.633 753.167 795.399 753.458 796.033 753.825L793.458 759.1C792.908 758.767 792.266 758.5 791.533 758.3C790.816 758.1 790.149 758 789.533 758C788.466 758 787.458 758.275 786.508 758.825C785.558 759.375 784.783 760.083 784.183 760.95C783.599 761.817 783.308 762.75 783.308 763.75V779H777.083ZM815.636 779V737.75H822.186V773.25H837.936V779H815.636ZM855.143 779.8C852.776 779.8 850.626 779.217 848.693 778.05C846.776 776.867 845.251 775.25 844.118 773.2C843.001 771.15 842.443 768.808 842.443 766.175C842.443 763.575 842.985 761.258 844.068 759.225C845.168 757.175 846.676 755.558 848.593 754.375C850.51 753.192 852.693 752.6 855.143 752.6C857.143 752.6 858.985 753.017 860.668 753.85C862.351 754.683 863.685 755.842 864.668 757.325V753.4H870.893V779H864.668V774.9C863.535 776.45 862.143 777.658 860.493 778.525C858.86 779.375 857.076 779.8 855.143 779.8ZM856.918 774.475C858.468 774.475 859.835 774.125 861.018 773.425C862.201 772.708 863.135 771.725 863.818 770.475C864.501 769.225 864.843 767.8 864.843 766.2C864.843 764.583 864.501 763.158 863.818 761.925C863.135 760.675 862.201 759.7 861.018 759C859.835 758.283 858.468 757.925 856.918 757.925C855.385 757.925 854.018 758.283 852.818 759C851.618 759.7 850.676 760.675 849.993 761.925C849.31 763.175 848.968 764.6 848.968 766.2C848.968 767.8 849.31 769.225 849.993 770.475C850.676 771.725 851.618 772.708 852.818 773.425C854.018 774.125 855.385 774.475 856.918 774.475ZM892.325 779.8C887.925 779.8 884.766 778.9 882.85 777.1C880.933 775.283 879.975 772.292 879.975 768.125V753.4H886.2V766.725C886.2 769.608 886.658 771.658 887.575 772.875C888.508 774.092 890.091 774.7 892.325 774.7C894.558 774.7 896.133 774.092 897.05 772.875C897.983 771.658 898.45 769.608 898.45 766.725V753.4H904.675V768.125C904.675 772.292 903.716 775.283 901.8 777.1C899.883 778.9 896.725 779.8 892.325 779.8ZM913.753 779V753.4H919.978V756.475C920.861 755.342 922.036 754.417 923.503 753.7C924.986 752.967 926.678 752.6 928.578 752.6C930.544 752.6 932.261 753.025 933.728 753.875C935.211 754.708 936.361 755.892 937.178 757.425C937.994 758.958 938.403 760.775 938.403 762.875V779H932.178V764.175C932.178 762.042 931.644 760.4 930.578 759.25C929.528 758.083 928.069 757.5 926.203 757.5C924.919 757.5 923.811 757.767 922.878 758.3C921.944 758.817 921.228 759.517 920.728 760.4C920.228 761.267 919.978 762.233 919.978 763.3V779H913.753ZM958.316 779.8C955.982 779.8 953.849 779.217 951.916 778.05C949.999 776.883 948.474 775.275 947.341 773.225C946.224 771.175 945.666 768.833 945.666 766.2C945.666 763.583 946.216 761.258 947.316 759.225C948.432 757.175 949.949 755.558 951.866 754.375C953.799 753.192 955.999 752.6 958.466 752.6C960.432 752.6 962.241 753.017 963.891 753.85C965.541 754.683 966.874 755.842 967.891 757.325V735.975H974.116V779H967.891V774.9C966.774 776.433 965.382 777.633 963.716 778.5C962.066 779.367 960.266 779.8 958.316 779.8ZM960.116 774.475C961.666 774.475 963.032 774.125 964.216 773.425C965.416 772.708 966.357 771.733 967.041 770.5C967.724 769.25 968.066 767.825 968.066 766.225C968.066 764.625 967.724 763.2 967.041 761.95C966.357 760.683 965.416 759.7 964.216 759C963.032 758.283 961.666 757.925 960.116 757.925C958.599 757.925 957.241 758.283 956.041 759C954.841 759.7 953.899 760.683 953.216 761.95C952.532 763.2 952.191 764.633 952.191 766.25C952.191 767.833 952.524 769.25 953.191 770.5C953.874 771.733 954.816 772.708 956.016 773.425C957.216 774.125 958.582 774.475 960.116 774.475ZM983.772 779V753.4H989.997V757.125C990.897 755.658 992.022 754.542 993.372 753.775C994.722 752.992 996.206 752.6 997.822 752.6C998.672 752.6 999.539 752.717 1000.42 752.95C1001.32 753.167 1002.09 753.458 1002.72 753.825L1000.15 759.1C999.597 758.767 998.956 758.5 998.222 758.3C997.506 758.1 996.839 758 996.222 758C995.156 758 994.147 758.275 993.197 758.825C992.247 759.375 991.472 760.083 990.872 760.95C990.289 761.817 989.997 762.75 989.997 763.75V779H983.772ZM1007.97 792L1015.54 776.725L1003.37 753.4H1010.47L1019.14 770.65L1026.82 753.4H1033.92L1015.07 792H1007.97ZM1053.62 779V737.75H1060.17L1079.52 768.025V737.75H1086.07V779H1079.52L1060.17 748.75V779H1053.62ZM1109.11 779.8C1106.37 779.8 1103.92 779.208 1101.76 778.025C1099.61 776.842 1097.9 775.225 1096.63 773.175C1095.38 771.125 1094.76 768.817 1094.76 766.25C1094.76 764.35 1095.12 762.575 1095.83 760.925C1096.55 759.275 1097.54 757.825 1098.81 756.575C1100.07 755.325 1101.55 754.35 1103.23 753.65C1104.92 752.95 1106.73 752.6 1108.68 752.6C1111.35 752.6 1113.68 753.15 1115.68 754.25C1117.7 755.35 1119.27 756.883 1120.38 758.85C1121.52 760.817 1122.08 763.108 1122.08 765.725C1122.08 765.942 1122.07 766.125 1122.06 766.275C1122.04 766.408 1122.01 766.642 1121.96 766.975H1101.11C1101.11 768.525 1101.46 769.892 1102.16 771.075C1102.86 772.242 1103.83 773.158 1105.08 773.825C1106.35 774.475 1107.8 774.8 1109.43 774.8C1110.98 774.8 1112.36 774.492 1113.56 773.875C1114.77 773.242 1115.87 772.283 1116.86 771L1121.38 773.325C1120.17 775.358 1118.47 776.95 1116.31 778.1C1114.16 779.233 1111.76 779.8 1109.11 779.8ZM1101.38 763.075H1115.91C1115.69 761.908 1115.25 760.9 1114.58 760.05C1113.92 759.2 1113.07 758.542 1112.06 758.075C1111.04 757.592 1109.91 757.35 1108.66 757.35C1107.34 757.35 1106.17 757.583 1105.13 758.05C1104.1 758.517 1103.26 759.175 1102.61 760.025C1101.96 760.875 1101.55 761.892 1101.38 763.075ZM1141.82 779.8C1139.09 779.8 1136.64 779.208 1134.47 778.025C1132.32 776.842 1130.61 775.225 1129.35 773.175C1128.1 771.125 1127.47 768.817 1127.47 766.25C1127.47 764.35 1127.83 762.575 1128.55 760.925C1129.26 759.275 1130.26 757.825 1131.52 756.575C1132.79 755.325 1134.26 754.35 1135.95 753.65C1137.63 752.95 1139.45 752.6 1141.4 752.6C1144.06 752.6 1146.4 753.15 1148.4 754.25C1150.41 755.35 1151.98 756.883 1153.1 758.85C1154.23 760.817 1154.8 763.108 1154.8 765.725C1154.8 765.942 1154.79 766.125 1154.77 766.275C1154.76 766.408 1154.72 766.642 1154.67 766.975H1133.82C1133.82 768.525 1134.17 769.892 1134.87 771.075C1135.57 772.242 1136.55 773.158 1137.8 773.825C1139.06 774.475 1140.51 774.8 1142.15 774.8C1143.7 774.8 1145.07 774.492 1146.27 773.875C1147.49 773.242 1148.59 772.283 1149.57 771L1154.1 773.325C1152.88 775.358 1151.19 776.95 1149.02 778.1C1146.87 779.233 1144.47 779.8 1141.82 779.8ZM1134.1 763.075H1148.62C1148.41 761.908 1147.96 760.9 1147.3 760.05C1146.63 759.2 1145.79 758.542 1144.77 758.075C1143.76 757.592 1142.62 757.35 1141.37 757.35C1140.06 757.35 1138.88 757.583 1137.85 758.05C1136.81 758.517 1135.97 759.175 1135.32 760.025C1134.67 760.875 1134.26 761.892 1134.1 763.075ZM1173.06 779.8C1170.73 779.8 1168.6 779.217 1166.66 778.05C1164.75 776.883 1163.22 775.275 1162.09 773.225C1160.97 771.175 1160.41 768.833 1160.41 766.2C1160.41 763.583 1160.96 761.258 1162.06 759.225C1163.18 757.175 1164.7 755.558 1166.61 754.375C1168.55 753.192 1170.75 752.6 1173.21 752.6C1175.18 752.6 1176.99 753.017 1178.64 753.85C1180.29 754.683 1181.62 755.842 1182.64 757.325V735.975H1188.86V779H1182.64V774.9C1181.52 776.433 1180.13 777.633 1178.46 778.5C1176.81 779.367 1175.01 779.8 1173.06 779.8ZM1174.86 774.475C1176.41 774.475 1177.78 774.125 1178.96 773.425C1180.16 772.708 1181.1 771.733 1181.79 770.5C1182.47 769.25 1182.81 767.825 1182.81 766.225C1182.81 764.625 1182.47 763.2 1181.79 761.95C1181.1 760.683 1180.16 759.7 1178.96 759C1177.78 758.283 1176.41 757.925 1174.86 757.925C1173.35 757.925 1171.99 758.283 1170.79 759C1169.59 759.7 1168.65 760.683 1167.96 761.95C1167.28 763.2 1166.94 764.633 1166.94 766.25C1166.94 767.833 1167.27 769.25 1167.94 770.5C1168.62 771.733 1169.56 772.708 1170.76 773.425C1171.96 774.125 1173.33 774.475 1174.86 774.475ZM1205.57 779.8C1203.42 779.8 1201.5 779.4 1199.82 778.6C1198.15 777.783 1196.79 776.617 1195.74 775.1L1198.49 771.05C1199.48 772.35 1200.57 773.358 1201.77 774.075C1202.99 774.792 1204.24 775.15 1205.54 775.15C1206.34 775.15 1207.05 775.008 1207.67 774.725C1208.29 774.425 1208.78 774 1209.14 773.45C1209.51 772.883 1209.69 772.217 1209.69 771.45C1209.69 770.65 1209.49 770.025 1209.07 769.575C1208.65 769.125 1208.03 768.717 1207.19 768.35C1206.36 767.983 1205.31 767.55 1204.04 767.05C1202.98 766.6 1201.96 766.1 1200.99 765.55C1200.03 765 1199.23 764.308 1198.59 763.475C1197.98 762.625 1197.67 761.55 1197.67 760.25C1197.67 758.767 1198.08 757.45 1198.89 756.3C1199.73 755.15 1200.86 754.25 1202.29 753.6C1203.74 752.95 1205.39 752.625 1207.24 752.625C1208.58 752.625 1209.92 752.867 1211.27 753.35C1212.62 753.817 1213.97 754.5 1215.32 755.4L1213.07 759.325C1211.12 757.708 1209.19 756.9 1207.29 756.9C1206.18 756.9 1205.28 757.167 1204.59 757.7C1203.93 758.233 1203.59 758.917 1203.59 759.75C1203.59 760.433 1203.89 761.017 1204.47 761.5C1205.05 761.983 1205.78 762.408 1206.64 762.775C1207.51 763.142 1208.38 763.492 1209.24 763.825C1210.61 764.325 1211.81 764.858 1212.84 765.425C1213.88 765.992 1214.69 766.725 1215.27 767.625C1215.85 768.525 1216.14 769.725 1216.14 771.225C1216.14 773.025 1215.71 774.567 1214.84 775.85C1213.99 777.133 1212.78 778.117 1211.19 778.8C1209.61 779.467 1207.74 779.8 1205.57 779.8Z" fill="black"/>
</svg>
